<?xml version="1.0" encoding="utf-8"?>
<!-- Generator: Adobe Illustrator 26.5.0, SVG Export Plug-In . SVG Version: 6.00 Build 0)  -->
<svg version="1.1" id="レイヤー_1" xmlns="http://www.w3.org/2000/svg" xmlns:xlink="http://www.w3.org/1999/xlink" x="0px"
	 y="0px" viewBox="0 0 161.1 77" style="enable-background:new 0 0 161.1 77;" xml:space="preserve">
<style type="text/css">
	.st0{fill:#121212;}
</style>
<g>
	<path class="st0" d="M3.5,1.5c-0.2-0.6,0.2-1,0.8-1h2.9c0.3,0,0.7,0.3,0.8,0.6l5.2,19.7h0.2l7-20.3C20.4,0.2,20.7,0,21,0h0.8
		c0.3,0,0.6,0.2,0.7,0.5l7.1,20.3h0.2L34.9,1c0.1-0.3,0.4-0.6,0.8-0.6h2.9c0.6,0,0.9,0.4,0.8,1l-8.1,28.9c-0.1,0.3-0.4,0.6-0.8,0.6
		h-0.7c-0.3,0-0.6-0.2-0.7-0.5L21.4,9.1h-0.2l-7.4,21.4c-0.1,0.3-0.4,0.5-0.7,0.5h-0.7c-0.3,0-0.7-0.3-0.8-0.6L3.5,1.5z"/>
	<path class="st0" d="M51.5,12.9c4.5,0,7.9,3.4,7.9,8c0,0.3,0,0.9-0.1,1.2c0,0.4-0.4,0.7-0.8,0.7H46.9c0.1,2.3,2.1,4.6,4.9,4.6
		c1.5,0,3-0.7,3.8-1.2c0.5-0.3,0.8-0.5,1.2,0l1.2,1.6c0.3,0.3,0.4,0.7-0.1,1.1c-1.2,1.1-3.5,2.2-6.4,2.2c-5.2,0-8.6-4.1-8.6-9
		C42.9,17.1,46.4,12.9,51.5,12.9z M55.4,20c-0.1-2.1-1.8-3.8-4-3.8c-2.3,0-4.1,1.7-4.4,3.8H55.4z"/>
	<path class="st0" d="M71.4,12.9c2.2,0,3.7,0.8,4.1,0.9V1.2c0-0.4,0.4-0.8,0.8-0.8h2.5c0.4,0,0.8,0.4,0.8,0.8v28.5
		c0,0.4-0.4,0.8-0.8,0.8h-1.3c-0.4,0-0.6-0.3-0.8-0.7l-0.3-1.2c0,0-2.1,2.4-5.5,2.4c-4.6,0-8-4.1-8-9C63,16.9,66.7,12.9,71.4,12.9z
		 M71.5,27.3c2.6,0,3.9-2.1,4.1-2.6v-7c0,0-1.5-1-3.7-1C69,16.6,67,19,67,21.9C67,24.8,68.8,27.3,71.5,27.3z"/>
	<path class="st0" d="M93.2,12.9c2.2,0,3.7,0.8,4.1,0.9V1.2c0-0.4,0.4-0.8,0.8-0.8h2.5c0.4,0,0.8,0.4,0.8,0.8v28.5
		c0,0.4-0.4,0.8-0.8,0.8h-1.3c-0.4,0-0.6-0.3-0.8-0.7l-0.3-1.2c0,0-2.1,2.4-5.5,2.4c-4.6,0-8-4.1-8-9C84.7,16.9,88.4,12.9,93.2,12.9
		z M93.2,27.3c2.6,0,3.9-2.1,4.1-2.6v-7c0,0-1.5-1-3.7-1c-2.9,0-4.9,2.4-4.9,5.3C88.7,24.8,90.5,27.3,93.2,27.3z"/>
	<path class="st0" d="M107.2,3.8c0-1.4,1.1-2.5,2.5-2.5c1.4,0,2.5,1.1,2.5,2.5c0,1.4-1.1,2.5-2.5,2.5C108.3,6.3,107.2,5.2,107.2,3.8
		z M107.6,14.1c0-0.4,0.4-0.8,0.8-0.8h2.5c0.4,0,0.8,0.4,0.8,0.8v15.6c0,0.4-0.4,0.8-0.8,0.8h-2.5c-0.4,0-0.8-0.4-0.8-0.8V14.1z"/>
	<path class="st0" d="M118,14.1c0-0.4,0.4-0.8,0.8-0.8h1.2c0.3,0,0.6,0.2,0.7,0.5l0.5,1.5c0.3-0.3,2.6-2.4,6-2.4
		c5.2,0,7.2,3.7,7.2,8.2v8.6c0,0.4-0.4,0.8-0.8,0.8h-2.5c-0.5,0-0.8-0.4-0.8-0.8v-8.8c0-2.8-1.3-4.3-3.6-4.3c-2.7,0-4.6,2-4.8,2.6
		v10.5c0,0.6-0.3,0.8-1,0.8h-2.2c-0.4,0-0.8-0.4-0.8-0.8V14.1z"/>
	<path class="st0" d="M141.8,24.6c0,0-1.3-1.6-1.3-4.2c0-4,3-7.5,7.4-7.5h7.5c0.5,0,0.8,0.3,0.8,0.8v1.1c0,0.3-0.2,0.7-0.5,0.7
		l-2.4,0.6c0,0,1.8,1.4,1.8,4.6c0,3.7-2.8,7-7.3,7c-2.2,0-3.4-0.7-3.7-0.7c-0.3,0-1.8,0.7-1.8,2.1c0,1,0.8,1.8,2.1,1.8h5.8
		c3.7,0,6.8,2,6.8,5.8c0,3.8-3.4,7.1-9.2,7.1c-6.1,0-8.5-3.1-8.5-5.9c0-2.6,2.1-3.8,2.5-4v-0.1c-0.9-0.3-3.2-1.4-3.2-4.3
		C138.7,26.2,141.8,24.6,141.8,24.6z M147.9,40.3c2.6,0,4.9-1.3,4.9-3.4c0-0.7-0.4-2.5-3.2-2.5c-1.2,0-2.5,0-3.8,0.1
		c-0.3,0.1-2.4,0.8-2.4,2.7C143.4,39,145.2,40.3,147.9,40.3z M151.6,20.5c0-2.3-1.5-4-3.6-4c-2.2,0-3.8,1.6-3.8,4c0,2.3,1.6,4,3.8,4
		C150.1,24.5,151.6,22.8,151.6,20.5z"/>
	<path class="st0" d="M0,47.2c0-0.4,0.4-0.8,0.8-0.8h2.8c0.4,0,0.8,0.4,0.8,0.8v28.5c0,0.4-0.4,0.8-0.8,0.8H0.8
		c-0.4,0-0.8-0.4-0.8-0.8V47.2z"/>
	<path class="st0" d="M12.1,60.1c0-0.4,0.4-0.8,0.8-0.8h1.2c0.3,0,0.6,0.2,0.7,0.5l0.5,1.5c0.3-0.3,2.6-2.4,6-2.4
		c5.2,0,7.2,3.7,7.2,8.2v8.6c0,0.4-0.4,0.8-0.8,0.8h-2.5c-0.5,0-0.8-0.4-0.8-0.8v-8.8c0-2.8-1.3-4.3-3.6-4.3c-2.7,0-4.6,2-4.8,2.6
		v10.5c0,0.6-0.3,0.8-1,0.8h-2.2c-0.4,0-0.8-0.4-0.8-0.8V60.1z"/>
	<path class="st0" d="M32.2,60.3c-0.3-0.6,0-1,0.6-1h2.5c0.4,0,0.6,0.2,0.8,0.5L40.7,70h0l4.6-10.1c0.2-0.5,0.7-0.5,1.2-0.5h2
		c0.6,0,0.9,0.4,0.6,1l-7.6,16.2c-0.1,0.2-0.3,0.4-0.7,0.4h-0.2c-0.4,0-0.6-0.2-0.7-0.4L32.2,60.3z"/>
	<path class="st0" d="M52.6,49.8c0-1.4,1.1-2.5,2.5-2.5c1.4,0,2.5,1.1,2.5,2.5c0,1.4-1.1,2.5-2.5,2.5C53.7,52.3,52.6,51.2,52.6,49.8
		z M53.1,60.1c0-0.4,0.4-0.8,0.8-0.8h2.5c0.4,0,0.8,0.4,0.8,0.8v15.6c0,0.4-0.4,0.8-0.8,0.8h-2.5c-0.4,0-0.8-0.4-0.8-0.8V60.1z"/>
	<path class="st0" d="M64.5,62.9h-1.8c-0.5,0-0.8-0.4-0.8-0.8v-1.9c0-0.5,0.3-0.8,0.8-0.8h1.8v-4.8c0-0.4,0.4-0.8,0.8-0.8l2.5,0
		c0.4,0,0.8,0.4,0.8,0.8v4.8h4.4c0.5,0,0.8,0.3,0.8,0.8v1.9c0,0.4-0.3,0.8-0.8,0.8h-4.4v8.5c0,1.5,0.6,1.7,1.4,1.7
		c0.9,0,2.1-0.5,2.6-0.8c0.6-0.3,0.8,0,1,0.4l0.8,1.9c0.2,0.5,0,0.8-0.4,1c-0.4,0.3-3,1.3-5,1.3c-3.4,0-4.4-2.1-4.4-5.1V62.9z"/>
	<path class="st0" d="M84.5,65.7c1.8,0,3.4,0.5,3.4,0.5c0-2.7-0.5-3.8-2.7-3.8c-2,0-3.9,0.5-4.8,0.8c-0.5,0.1-0.8-0.2-0.9-0.7
		l-0.3-1.6c-0.1-0.6,0.2-0.9,0.6-1c0.3-0.1,2.8-1,5.9-1c5.5,0,6,3.4,6,7.7v9.2c0,0.4-0.4,0.8-0.8,0.8h-1.2c-0.4,0-0.6-0.2-0.7-0.6
		l-0.4-1.2c-0.9,0.9-2.6,2.2-5.3,2.2c-3.2,0-5.5-2.2-5.5-5.8C77.7,68.1,80.2,65.7,84.5,65.7z M84,73.9c1.7,0,3.4-1.3,3.9-2.1V69
		c-0.3-0.2-1.5-0.7-3-0.7c-2.1,0-3.5,1.1-3.5,2.8C81.4,72.7,82.4,73.9,84,73.9z"/>
	<path class="st0" d="M98.9,62.9H97c-0.5,0-0.8-0.4-0.8-0.8v-1.9c0-0.5,0.3-0.8,0.8-0.8h1.8v-4.8c0-0.4,0.4-0.8,0.8-0.8l2.5,0
		c0.4,0,0.8,0.4,0.8,0.8v4.8h4.4c0.5,0,0.8,0.3,0.8,0.8v1.9c0,0.4-0.3,0.8-0.8,0.8h-4.4v8.5c0,1.5,0.6,1.7,1.4,1.7
		c0.9,0,2.1-0.5,2.6-0.8c0.6-0.3,0.8,0,1,0.4l0.8,1.9c0.2,0.5,0,0.8-0.4,1c-0.4,0.3-3,1.3-5,1.3c-3.4,0-4.4-2.1-4.4-5.1V62.9z"/>
	<path class="st0" d="M112.8,49.8c0-1.4,1.1-2.5,2.5-2.5c1.4,0,2.5,1.1,2.5,2.5c0,1.4-1.1,2.5-2.5,2.5
		C113.9,52.3,112.8,51.2,112.8,49.8z M113.3,60.1c0-0.4,0.4-0.8,0.8-0.8h2.5c0.4,0,0.8,0.4,0.8,0.8v15.6c0,0.4-0.4,0.8-0.8,0.8h-2.5
		c-0.4,0-0.8-0.4-0.8-0.8V60.1z"/>
	<path class="st0" d="M131,58.9c4.8,0,8.7,4.1,8.7,9c0,4.9-3.9,9.1-8.7,9.1c-4.8,0-8.7-4.1-8.7-9.1C122.3,63,126.2,58.9,131,58.9z
		 M131,73.3c2.7,0,4.9-2.4,4.9-5.4c0-2.9-2.2-5.2-4.9-5.2s-4.9,2.4-4.9,5.2C126.1,70.9,128.3,73.3,131,73.3z"/>
	<path class="st0" d="M144.6,60.1c0-0.4,0.4-0.8,0.8-0.8h1.2c0.3,0,0.6,0.2,0.7,0.5l0.5,1.5c0.3-0.3,2.6-2.4,6-2.4
		c5.2,0,7.2,3.7,7.2,8.2v8.6c0,0.4-0.4,0.8-0.8,0.8h-2.5c-0.5,0-0.8-0.4-0.8-0.8v-8.8c0-2.8-1.3-4.3-3.6-4.3c-2.7,0-4.6,2-4.8,2.6
		v10.5c0,0.6-0.3,0.8-1,0.8h-2.2c-0.4,0-0.8-0.4-0.8-0.8V60.1z"/>
</g>
</svg>
