<?xml version="1.0" encoding="utf-8"?>
<!-- Generator: Adobe Illustrator 26.5.0, SVG Export Plug-In . SVG Version: 6.00 Build 0)  -->
<svg version="1.1" id="レイヤー_1" xmlns="http://www.w3.org/2000/svg" xmlns:xlink="http://www.w3.org/1999/xlink" x="0px"
	 y="0px" viewBox="0 0 79.9 14.4" style="enable-background:new 0 0 79.9 14.4;" xml:space="preserve">
<style type="text/css">
	.st0{fill:#121212;}
</style>
<g>
	<path class="st0" d="M2.3,3.7L0.7,4.4c-0.2,0.1-0.4,0-0.4-0.1L0,3.6C0,3.4,0,3.3,0.1,3.2l2.8-2.6h1c0.2,0,0.4,0.2,0.4,0.4v12.8
		c0,0.2-0.2,0.4-0.4,0.4H2.7c-0.2,0-0.4-0.2-0.4-0.4V3.7z"/>
	<path class="st0" d="M7.8,7.4c0-4.4,1.8-7,5-7c3.1,0,4.9,2.6,4.9,7c0,4.4-1.8,7-4.9,7C9.6,14.4,7.8,11.8,7.8,7.4z M15.7,7.4
		c0-3.3-1.1-5.2-2.9-5.2c-1.9,0-2.9,1.9-2.9,5.2c0,3.3,1.1,5.2,2.9,5.2C14.6,12.6,15.7,10.7,15.7,7.4z"/>
	<path class="st0" d="M21.5,11.6c0.8,0,1.4,0.6,1.4,1.4c0,0.8-0.6,1.4-1.4,1.4c-0.8,0-1.4-0.6-1.4-1.4
		C20.2,12.2,20.8,11.6,21.5,11.6z"/>
	<path class="st0" d="M24.8,13.3c1.5-1.7,3.6-4.2,5-6c1-1.1,1.5-2.1,1.5-2.9c0-1-0.7-2.2-2.5-2.2c-1.1,0-2,0.8-2.5,1.3
		c-0.2,0.2-0.4,0.2-0.5,0l-0.7-0.7c-0.1-0.1-0.2-0.4,0-0.5c0,0,1.5-2,3.9-2c2.9,0,4.4,1.8,4.4,3.9c0,1.5-0.8,2.6-1.9,3.9
		c-1.1,1.3-2.5,2.9-3.6,4.3h5.1c0.2,0,0.4,0.2,0.4,0.4v1c0,0.2-0.2,0.4-0.4,0.4h-7.7c-0.2,0-0.4-0.2-0.4-0.4V13.3z"/>
	<path class="st0" d="M35.5,12.1l0.8-0.7c0.2-0.2,0.4-0.1,0.5,0c0.1,0.2,1.2,1.2,2.7,1.2c1.3,0,2.5-0.8,2.5-2.2c0-1.2-1-2.3-3.2-2.3
		h-1.1c-0.2,0-0.4-0.1-0.4-0.4V6.9c0-0.3,0.1-0.4,0.4-0.4h1.1c1.9,0,2.8-1,2.8-2.1c0-1.3-1.1-2.2-2.3-2.2c-1.2,0-1.9,0.7-2.3,1.1
		c-0.1,0.2-0.3,0.2-0.5,0l-0.7-0.7c-0.2-0.1-0.1-0.4,0-0.5c0,0,1.5-1.8,3.7-1.8c2.3,0,4.2,1.4,4.2,3.7c0,1.5-1.2,2.7-2.1,3.1v0.1
		c0.9,0.4,2.4,1.6,2.4,3.3c0,2.2-1.8,3.8-4.5,3.8c-2.5,0-3.7-1.3-4.1-1.8C35.3,12.5,35.3,12.3,35.5,12.1z"/>
	<path class="st0" d="M51,12.2c0.2-0.3,0.3-0.6,0.5-0.8c0.2-0.3,0.5-0.3,0.7-0.2c0.1,0.1,1.7,1.4,3.2,1.4c1.4,0,2.3-0.8,2.3-1.9
		c0-1.2-1-2-3-2.8C52.6,7.1,51,6,51,3.7C51,2.1,52.2,0,55.4,0c2,0,3.5,1,3.7,1.2c0.2,0.1,0.3,0.4,0.1,0.7c-0.2,0.2-0.3,0.5-0.5,0.8
		C58.6,2.9,58.3,3,58,2.8c-0.1-0.1-1.5-1-2.7-1c-1.7,0-2.3,1.1-2.3,1.8c0,1.1,0.9,1.8,2.5,2.5c2.3,0.9,4.3,2,4.3,4.5
		c0,2.1-1.9,3.8-4.5,3.8c-2.4,0-4-1.3-4.3-1.6C51,12.7,50.8,12.5,51,12.2z"/>
	<path class="st0" d="M62.1,6.6c0-0.2,0.2-0.4,0.4-0.4h1.1c0.2,0,0.4,0.2,0.4,0.4v4.1c0,1.3,0.6,2,1.6,2c1.2,0,1.9-1,2-1.3V6.6
		c0-0.3,0.2-0.4,0.4-0.4h1c0.2,0,0.4,0.2,0.4,0.4v7.2c0,0.2-0.2,0.4-0.4,0.4h-0.6c-0.2,0-0.3-0.1-0.4-0.3L68,13.3
		c-0.2,0.2-1,1.1-2.6,1.1c-2.4,0-3.2-1.7-3.2-3.8V6.6z"/>
	<path class="st0" d="M72.3,6.6c0-0.2,0.2-0.4,0.4-0.4h0.6c0.2,0,0.3,0.1,0.3,0.2l0.2,0.7C73.9,7,75,6,76.6,6c2.4,0,3.3,1.7,3.3,3.8
		v4c0,0.2-0.2,0.4-0.4,0.4h-1.1c-0.2,0-0.4-0.2-0.4-0.4V9.7c0-1.3-0.6-2-1.7-2c-1.3,0-2.1,0.9-2.2,1.2v4.9c0,0.3-0.1,0.4-0.5,0.4h-1
		c-0.2,0-0.4-0.2-0.4-0.4V6.6z"/>
</g>
</svg>
