<?xml version="1.0" encoding="utf-8"?>
<!-- Generator: Adobe Illustrator 26.5.0, SVG Export Plug-In . SVG Version: 6.00 Build 0)  -->
<svg version="1.1" id="レイヤー_1" xmlns="http://www.w3.org/2000/svg" xmlns:xlink="http://www.w3.org/1999/xlink" x="0px"
	 y="0px" viewBox="0 0 88.2 8.6" style="enable-background:new 0 0 88.2 8.6;" xml:space="preserve">
<style type="text/css">
	.st0{fill:#121212;}
</style>
<g>
	<path class="st0" d="M0,0.4c0-0.2,0.1-0.3,0.3-0.3H1c0.2,0,0.3,0.1,0.3,0.3v3.3l3.4-3.5c0-0.1,0.1-0.1,0.2-0.1h0.9
		c0.2,0,0.3,0.3,0.2,0.4L2.5,4.1l3.7,4c0.1,0.1,0,0.4-0.2,0.4H5c-0.1,0-0.2,0-0.2-0.1L1.3,4.5v3.7c0,0.2-0.1,0.3-0.3,0.3H0.3
		C0.1,8.5,0,8.4,0,8.2V0.4z"/>
	<path class="st0" d="M8.8,5.5c0.5,0,0.9,0.1,0.9,0.1c0-0.8-0.1-1.1-0.7-1.1c-0.6,0-1.1,0.1-1.3,0.2c-0.1,0-0.2-0.1-0.3-0.2L7.3,4.2
		c0-0.2,0-0.2,0.2-0.3c0.1,0,0.8-0.3,1.7-0.3c1.5,0,1.7,0.9,1.7,2.1v2.6c0,0.1-0.1,0.2-0.2,0.2h-0.3c-0.1,0-0.2,0-0.2-0.2L9.9,8
		C9.7,8.3,9.2,8.6,8.4,8.6C7.5,8.6,6.9,8,6.9,7C6.9,6.2,7.6,5.5,8.8,5.5z M8.7,7.8c0.5,0,0.9-0.4,1.1-0.6V6.4
		c-0.1,0-0.4-0.2-0.8-0.2c-0.6,0-1,0.3-1,0.8C7.9,7.4,8.2,7.8,8.7,7.8z"/>
	<path class="st0" d="M11.9,8.2l2-3.4v0h-1.7c-0.1,0-0.2-0.1-0.2-0.2V3.9c0-0.1,0.1-0.2,0.2-0.2h3.1c0.2,0,0.3,0.2,0.2,0.3l-2,3.5v0
		h1.6c0.1,0,0.2,0.1,0.2,0.2v0.6c0,0.1-0.1,0.2-0.2,0.2h-3c-0.1,0-0.2-0.1-0.2-0.2V8.2z"/>
	<path class="st0" d="M16.6,3.9c0-0.1,0.1-0.2,0.2-0.2h0.7c0.1,0,0.2,0.1,0.2,0.2v2.5c0,0.8,0.4,1.2,1,1.2c0.7,0,1.2-0.6,1.2-0.8
		V3.9c0-0.2,0.1-0.2,0.3-0.2h0.6c0.1,0,0.2,0.1,0.2,0.2v4.3c0,0.1-0.1,0.2-0.2,0.2h-0.3c-0.1,0-0.2-0.1-0.2-0.2L20.1,8
		c-0.1,0.1-0.6,0.7-1.6,0.7c-1.4,0-1.9-1-1.9-2.3V3.9z"/>
	<path class="st0" d="M22.6,3.9c0-0.1,0.1-0.2,0.2-0.2h0.3c0.1,0,0.2,0.1,0.2,0.1l0.1,0.4c0.1-0.1,0.7-0.7,1.6-0.7
		c0.7,0,1.2,0.3,1.5,0.8c0.1-0.1,0.8-0.8,1.7-0.8c1.5,0,2,1,2,2.3v2.4c0,0.1-0.1,0.2-0.2,0.2h-0.7c-0.1,0-0.2-0.1-0.2-0.2V5.8
		c0-0.8-0.3-1.2-1-1.2c-0.7,0-1.2,0.5-1.2,0.6c0,0.1,0,0.3,0,0.6v2.5c0,0.1-0.1,0.2-0.2,0.2h-0.6c-0.1,0-0.2-0.1-0.2-0.2V5.8
		c0-0.8-0.3-1.2-1-1.2c-0.7,0-1.1,0.6-1.2,0.7v2.9c0,0.1-0.1,0.2-0.2,0.2h-0.7c-0.1,0-0.2-0.1-0.2-0.2V3.9z"/>
	<path class="st0" d="M33.4,5.5c0.5,0,0.9,0.1,0.9,0.1c0-0.8-0.1-1.1-0.7-1.1c-0.6,0-1.1,0.1-1.3,0.2c-0.1,0-0.2-0.1-0.3-0.2
		l-0.1-0.4c0-0.2,0-0.2,0.2-0.3c0.1,0,0.8-0.3,1.7-0.3c1.5,0,1.7,0.9,1.7,2.1v2.6c0,0.1-0.1,0.2-0.2,0.2h-0.3c-0.1,0-0.2,0-0.2-0.2
		L34.5,8c-0.3,0.3-0.7,0.6-1.5,0.6c-0.9,0-1.5-0.6-1.5-1.6C31.5,6.2,32.2,5.5,33.4,5.5z M33.3,7.8c0.5,0,0.9-0.4,1.1-0.6V6.4
		c-0.1,0-0.4-0.2-0.8-0.2c-0.6,0-1,0.3-1,0.8C32.6,7.4,32.8,7.8,33.3,7.8z"/>
	<path class="st0" d="M41.1,5.5c0.5,0,0.9,0.1,0.9,0.1c0-0.8-0.1-1.1-0.7-1.1c-0.6,0-1.1,0.1-1.3,0.2c-0.1,0-0.2-0.1-0.3-0.2
		l-0.1-0.4c0-0.2,0-0.2,0.2-0.3c0.1,0,0.8-0.3,1.7-0.3c1.5,0,1.7,0.9,1.7,2.1v2.6c0,0.1-0.1,0.2-0.2,0.2h-0.3c-0.1,0-0.2,0-0.2-0.2
		L42.2,8c-0.3,0.3-0.7,0.6-1.5,0.6c-0.9,0-1.5-0.6-1.5-1.6C39.2,6.2,39.9,5.5,41.1,5.5z M41,7.8c0.5,0,0.9-0.4,1.1-0.6V6.4
		c-0.1,0-0.4-0.2-0.8-0.2c-0.6,0-1,0.3-1,0.8C40.3,7.4,40.6,7.8,41,7.8z"/>
	<path class="st0" d="M44.7,3.9c0-0.1,0.1-0.2,0.2-0.2h0.3c0.1,0,0.2,0.1,0.2,0.1l0.1,0.4c0.1-0.1,0.7-0.7,1.7-0.7c1.5,0,2,1,2,2.3
		v2.4c0,0.1-0.1,0.2-0.2,0.2h-0.7c-0.1,0-0.2-0.1-0.2-0.2V5.8c0-0.8-0.4-1.2-1-1.2c-0.8,0-1.3,0.6-1.3,0.7v2.9
		c0,0.2-0.1,0.2-0.3,0.2h-0.6c-0.1,0-0.2-0.1-0.2-0.2V3.9z"/>
	<path class="st0" d="M52.8,3.6c0.6,0,1,0.2,1.2,0.3V0.3c0-0.1,0.1-0.2,0.2-0.2h0.7c0.1,0,0.2,0.1,0.2,0.2v7.9
		c0,0.1-0.1,0.2-0.2,0.2h-0.4c-0.1,0-0.2-0.1-0.2-0.2L54.2,8c0,0-0.6,0.7-1.5,0.7c-1.3,0-2.2-1.1-2.2-2.5
		C50.4,4.7,51.4,3.6,52.8,3.6z M52.8,7.6c0.7,0,1.1-0.6,1.1-0.7v-2c0,0-0.4-0.3-1-0.3c-0.8,0-1.4,0.7-1.4,1.5
		C51.5,6.9,52,7.6,52.8,7.6z"/>
	<path class="st0" d="M58.5,8.2l3.7-8.1c0-0.1,0.1-0.1,0.2-0.1h0.1c0.1,0,0.2,0.1,0.2,0.1l3.7,8.1c0.1,0.2,0,0.3-0.2,0.3h-0.8
		c-0.1,0-0.2-0.1-0.3-0.2l-0.7-1.6h-3.9c-0.2,0.6-0.5,1.1-0.7,1.6c0,0.1-0.1,0.2-0.3,0.2h-0.8C58.5,8.5,58.5,8.4,58.5,8.2z M64,5.7
		l-1.5-3.3h-0.1L61,5.7H64z"/>
	<path class="st0" d="M67.2,0.3c0-0.1,0.1-0.2,0.2-0.2h0.7c0.1,0,0.2,0.1,0.2,0.2v5.2l1.9-1.7c0.1-0.1,0.2-0.1,0.3-0.1h0.8
		c0.2,0,0.2,0.2,0.1,0.3l-2,1.8l2.4,2.4c0.1,0.1,0.1,0.3-0.1,0.3h-1c-0.1,0-0.2,0-0.2-0.1l-2.2-2.2v2.1c0,0.1-0.1,0.2-0.2,0.2h-0.7
		c-0.1,0-0.2-0.1-0.2-0.2V0.3z"/>
	<path class="st0" d="M74.4,5.5c0.5,0,0.9,0.1,0.9,0.1c0-0.8-0.1-1.1-0.7-1.1c-0.6,0-1.1,0.1-1.3,0.2c-0.1,0-0.2-0.1-0.3-0.2
		l-0.1-0.4c0-0.2,0-0.2,0.2-0.3c0.1,0,0.8-0.3,1.7-0.3c1.5,0,1.7,0.9,1.7,2.1v2.6c0,0.1-0.1,0.2-0.2,0.2h-0.3c-0.1,0-0.2,0-0.2-0.2
		L75.5,8c-0.3,0.3-0.7,0.6-1.5,0.6c-0.9,0-1.5-0.6-1.5-1.6C72.5,6.2,73.2,5.5,74.4,5.5z M74.2,7.8c0.5,0,0.9-0.4,1.1-0.6V6.4
		c-0.1,0-0.4-0.2-0.8-0.2c-0.6,0-1,0.3-1,0.8C73.5,7.4,73.8,7.8,74.2,7.8z"/>
	<path class="st0" d="M77.9,3.9c0-0.1,0.1-0.2,0.2-0.2h0.3c0.1,0,0.2,0.1,0.2,0.1l0.1,0.4c0.1-0.1,0.7-0.7,1.7-0.7c1.5,0,2,1,2,2.3
		v2.4c0,0.1-0.1,0.2-0.2,0.2h-0.7c-0.1,0-0.2-0.1-0.2-0.2V5.8c0-0.8-0.4-1.2-1-1.2c-0.8,0-1.3,0.6-1.3,0.7v2.9
		c0,0.2-0.1,0.2-0.3,0.2h-0.6c-0.1,0-0.2-0.1-0.2-0.2V3.9z"/>
	<path class="st0" d="M86,3.6c1.2,0,2.2,0.9,2.2,2.2c0,0.1,0,0.2,0,0.3c0,0.1-0.1,0.2-0.2,0.2h-3.3c0,0.6,0.6,1.3,1.4,1.3
		c0.4,0,0.8-0.2,1.1-0.3c0.1-0.1,0.2-0.1,0.3,0l0.3,0.5c0.1,0.1,0.1,0.2,0,0.3c-0.3,0.3-1,0.6-1.8,0.6c-1.5,0-2.4-1.1-2.4-2.5
		C83.6,4.8,84.6,3.6,86,3.6z M87.1,5.6c0-0.6-0.5-1.1-1.1-1.1c-0.6,0-1.2,0.5-1.2,1.1H87.1z"/>
</g>
</svg>
